{"title":"The Book of Eli TS XVID V2 - IMAGiNE","uid":5305267,"size":1514166250,"categoryP":"video","categoryS":"movies","magnet":"?xt=urn:btih:08a3144c74b3d046dd8ea0bcea47ab681d53c5cb&amp;dn=The+Book+of+Eli+TS+XVID+V2+-+IMAGiNE&amp;tr=udp%3A%2F%2Ftracker.openbittorrent.com%3A80&amp;tr=udp%3A%2F%2Fopen.demonii.com%3A1337&amp;tr=udp%3A%2F%2Ftracker.coppersurfer.tk%3A6969&amp;tr=udp%3A%2F%2Fexodus.desync.com%3A6969","seeders":0,"leechers":0,"uploader":"IwannaFan2","files":2,"time":1264365696,"description":" &lt;a href=&quot;http://www.imdb.com/title/tt1037705/&quot; rel=&quot;nofollow&quot; target=&quot;_NEW&quot;&gt;http://www.imdb.com/title/tt1037705/&lt;/a&gt;\n\nRipper ...........: IMAGiNE                                        IMDB Rating.......:7.6/10                            \nVideo Codec.......: XVID                                         Release Date......:22/01/10\nAudio Codec.......:MP3                                           Theatre Date......:15/01/10\nAudio Bitrate.....:128                                              Runtime.......:1h 48mn\nSubtitles.........:NIL                                                 Language..........:ENGLISH\nResolution...... 704 x 288                                      IMDb URL..........:http://www.imdb.com/title/tt1037705/\n\n\nDETAILS:\n\nVideo\nID                               : 0\nFormat                           : MPEG-4 Visual\nFormat profile                   : Advanced Simple@L5\nFormat settings, BVOP            : Yes\nFormat settings, QPel            : No\nFormat settings, GMC             : No warppoints\nFormat settings, Matrix          : Default (MPEG)\nMuxing mode                      : Packed bitstream\nCodec ID                         : XVID\nCodec ID/Hint                    : XviD\nDuration                         : 1h 48mn\nBit rate                         : 1 680 Kbps\nWidth                            : 704 pixels\nHeight                           : 288 pixels\nDisplay aspect ratio             : 2.444\nFrame rate                       : 25.000 fps\nResolution                       : 24 bits\nColorimetry                      : 4:2:0\nScan type                        : Progressive\nBits/(Pixel*Frame)               : 0.331\nStream size                      : 1.28 GiB (92%)\nWriting library                  : XviD 1.2.1 (UTC 2008-12-04)\n\nAudio\nID                               : 1\nFormat                           : MPEG Audio\nFormat version                   : Version 1\nFormat profile                   : Layer 3\nCodec ID                         : 55\nCodec ID/Hint                    : MP3\nDuration                         : 1h 48mn\nBit rate mode                    : Constant\nBit rate                         : 128 Kbps\nChannel(s)                       : 2 channels\nSampling rate                    : 48.0 KHz\nResolution                       : 16 bits\nStream size                      : 99.6 MiB (7%)\nAlignment                        : Split accross interleaves\nInterleave, duration             : 40 ms (1.00 video frame)\nInterleave, preload duration     : 500 ms","torrent":{"xt":"urn:btih:08a3144c74b3d046dd8ea0bcea47ab681d53c5cb","amp;dn":"The+Book+of+Eli+TS+XVID+V2+-+IMAGiNE","amp;tr":["udp%3A%2F%2Ftracker.openbittorrent.com%3A80","udp%3A%2F%2Fopen.demonii.com%3A1337","udp%3A%2F%2Ftracker.coppersurfer.tk%3A6969","udp%3A%2F%2Fexodus.desync.com%3A6969"],"infoHash":"08a3144c74b3d046dd8ea0bcea47ab681d53c5cb","infoHashBuffer":{"type":"Buffer","data":[8,163,20,76,116,179,208,70,221,142,160,188,234,71,171,104,29,83,197,203]},"announce":[],"urlList":[]}}